<svg width="724" height="359" viewBox="0 0 724 359" fill="none" xmlns="http://www.w3.org/2000/svg">
<g clip-path="url(#clip0_263_8104)">
<path d="M493.454 268.203L568.53 36.4595C574.348 27.1258 620.355 28.931 624.076 34.2235C627.797 39.5161 615.792 72.8099 613.201 81.0359C587.936 161.245 557.573 240.038 532.246 320.267C529.799 323.775 523.139 326.914 518.986 327.549C509.632 328.985 462.864 328.842 456.512 324.513C454.23 322.954 452.914 321.231 452.195 318.564L360.734 46.7574C359.747 42.9008 358.123 36.0698 361.824 33.2799C367.868 28.7053 415.438 28.4797 420.454 34.3466L493.454 268.203Z" fill="#FBFFEB"/>
<path d="M723.678 323.59C712.412 328.432 673.785 331.324 666.096 322.585C664.41 320.677 663.732 319.118 663.938 316.534L664.39 37.7723C668.028 26.9616 723.678 28.4386 723.678 37.4441V323.611V323.59Z" fill="#FBFFEB"/>
<path d="M141.899 79.4765V318.462C141.899 332.678 91.8825 328.144 82.2821 323.59V82.5536C82.2821 82.328 79.4246 79.4765 79.1985 79.4765H5.1913C-3.27841 79.4765 -2.1683 39.4337 2.10767 32.2949H218.99C227.11 32.2949 225.918 79.4765 218.99 79.4765H141.899Z" fill="#FBFFEB"/>
<path d="M281.259 30.8579C289.913 29.9758 318.858 29.3399 320.75 39.4737L320.832 316.512C320.832 319.404 320.133 321.845 317.81 323.753C311.602 328.861 260.352 333.395 261.03 316.512L261.133 39.4737C262.469 32.1503 274.906 31.4938 281.279 30.8579H281.259Z" fill="#FBFFEB"/>
</g>
<defs>
<clipPath id="clip0_263_8104">
<rect width="724" height="358.268" fill="white"/>
</clipPath>
</defs>
</svg>
