<svg width="64" height="24" viewBox="0 0 64 24" fill="none" xmlns="http://www.w3.org/2000/svg">
<path d="M5.12911 15.8497C5.12911 14.571 5.12911 13.3238 5.12989 12.0767C5.12989 12.0194 5.12249 11.9769 5.06489 11.9454C4.0662 11.396 3.06867 10.8447 2.07037 10.2942C2.05752 10.2872 2.04001 10.2884 2.02405 10.2856C1.99097 10.3316 2.00965 10.3807 2.00965 10.4263C2.00887 11.5932 2.01315 12.7597 2.00615 13.9266C2.00537 14.0812 2.04974 14.1502 2.18907 14.2242C2.89236 14.5998 3.58553 14.9941 4.2826 15.3814C4.55737 15.5341 4.83293 15.686 5.12911 15.8497Z" fill="#34B84A"/>
<path d="M8.64353 17.7889C8.64353 17.6533 8.64353 17.5376 8.64353 17.4215C8.64353 16.3029 8.64119 15.1844 8.64586 14.0658C8.64625 13.9477 8.61123 13.8854 8.5077 13.8289C7.5775 13.3205 6.65081 12.8062 5.72295 12.2938C5.67236 12.2658 5.61981 12.2405 5.56532 12.2124C5.53224 12.2685 5.54742 12.3223 5.54742 12.3725C5.54625 13.5503 5.5482 14.7281 5.54431 15.9059C5.54431 16.0154 5.57661 16.075 5.67274 16.1288C6.57453 16.6333 7.4732 17.1433 8.37303 17.6506C8.45593 17.6973 8.54234 17.7371 8.64392 17.7885L8.64353 17.7889Z" fill="#34B84A"/>
<path d="M12.1438 19.6756C12.1438 18.4316 12.1434 17.195 12.1446 15.9587C12.1446 15.8781 12.1275 15.8255 12.0473 15.7811C11.126 15.2691 10.2079 14.7517 9.28862 14.2363C9.22479 14.2004 9.15784 14.1696 9.09791 14.1396C9.05665 14.1642 9.06872 14.1942 9.06872 14.2184C9.06521 15.4172 9.06483 16.616 9.05665 17.8148C9.05587 17.929 9.09518 17.9886 9.18781 18.04C10.16 18.582 11.1311 19.1263 12.1026 19.6698C12.1107 19.6745 12.1224 19.6729 12.1434 19.6756H12.1438Z" fill="#34B84A"/>
<path d="M5.1289 11.4322V11.2896C5.1289 10.1239 5.12734 8.95779 5.13163 7.79208C5.13163 7.68727 5.09893 7.63351 5.00942 7.57896C4.03641 6.98675 3.00697 6.49701 2.00049 5.9126C2.00049 5.97961 2.00049 6.03026 2.00049 6.08091C2.00243 7.25208 2.00555 8.42325 2.0036 9.59442C2.0036 9.69805 2.03201 9.74987 2.12659 9.80091C3.07235 10.3113 4.01461 10.8291 4.95765 11.3445C5.00786 11.3722 5.05962 11.3968 5.1289 11.4322Z" fill="#34B84A"/>
<path d="M8.64366 13.3627C8.64366 13.1745 8.64366 13.0035 8.64366 12.8324C8.64366 11.7894 8.64328 10.7464 8.64366 9.70346C8.64366 9.62242 8.64911 9.55268 8.55609 9.50242C7.58153 8.97528 6.60969 8.44346 5.63707 7.9132C5.6145 7.90112 5.59037 7.89216 5.56546 7.88086C5.53043 7.93151 5.54678 7.98021 5.54678 8.02541C5.54561 9.19735 5.546 10.3693 5.54561 11.5412C5.54561 11.6161 5.54133 11.6784 5.62968 11.7263C6.61281 12.2589 7.59282 12.7974 8.574 13.3342C8.58762 13.3416 8.6028 13.3459 8.64328 13.3623L8.64366 13.3627Z" fill="#34B84A"/>
<path d="M9.06241 11.736C9.06241 12.327 9.06436 12.918 9.06008 13.5091C9.0593 13.5956 9.08226 13.6404 9.1601 13.6832C10.093 14.1956 11.0228 14.7126 11.9538 15.228C11.9818 15.2436 12.0122 15.2549 12.039 15.2725C12.1359 15.336 12.1609 15.2966 12.1503 15.198C12.106 14.7695 12.1286 14.3393 12.1293 13.9104C12.1309 13.1475 12.1091 12.3843 12.1457 11.6218C12.1507 11.5158 12.1184 11.4601 12.0254 11.4083C11.0964 10.889 10.1701 10.3645 9.22977 9.86545C9.07292 9.78207 9.07019 9.78324 9.07019 9.96324C9.06942 10.5543 9.07019 11.1453 9.07019 11.7364C9.06786 11.7364 9.06514 11.7364 9.0628 11.7364L9.06241 11.736Z" fill="#34B84A"/>
<path d="M2.00732 14.6196C2.00732 15.8465 2.0081 17.0563 2.00537 18.266C2.00537 18.3381 2.03534 18.3689 2.09061 18.4016C3.04532 18.9646 4.01366 19.5038 4.9925 20.0247C5.09175 20.0777 5.13262 20.0878 5.13184 19.9464C5.12717 18.7904 5.12911 17.634 5.13028 16.4781C5.13028 16.4103 5.12172 16.3616 5.05244 16.3207C4.07204 15.7374 3.07257 15.1881 2.07387 14.6364C2.06103 14.6294 2.04507 14.629 2.00732 14.6196Z" fill="#34B84A"/>
<path d="M12.1504 23.9832C12.1504 22.7342 12.1504 21.5092 12.1516 20.2839C12.1516 20.2247 12.1399 20.1834 12.0842 20.1526C11.0925 19.6029 10.1012 19.0516 9.10995 18.501C9.10216 18.4967 9.08971 18.5006 9.07764 18.5006C9.04845 18.5451 9.06441 18.5938 9.06441 18.6393C9.06519 19.7895 9.06869 20.9396 9.06753 22.0901C9.06753 22.1969 9.09282 22.26 9.19402 22.3177C10.1421 22.8584 11.0832 23.4117 12.0441 23.9295C12.0718 23.9443 12.1002 23.9579 12.1504 23.9832Z" fill="#34B84A"/>
<path d="M8.64984 22.0237C8.64984 21.006 8.64984 20.0172 8.64984 19.0288C8.64984 18.8191 8.64672 18.6095 8.64906 18.3999C8.64984 18.3302 8.6366 18.2823 8.5681 18.2441C7.5877 17.6959 6.60847 17.1446 5.62923 16.5945C5.61094 16.5843 5.59109 16.5773 5.57046 16.5684C5.52726 16.6026 5.54789 16.6486 5.54789 16.6864C5.54633 17.8475 5.54672 19.0081 5.54711 20.1691C5.54711 20.2358 5.53349 20.2989 5.61795 20.3452C6.60185 20.888 7.58303 21.4362 8.56499 21.9824C8.5825 21.9921 8.60119 21.9999 8.65023 22.0237H8.64984Z" fill="#34B84A"/>
<path d="M12.183 7.6333V10.9762C12.1293 10.982 12.0767 10.9668 12.0129 10.929C11.6428 10.7093 11.2648 10.5016 10.8873 10.2943C10.2887 9.96551 9.6878 9.64057 9.0752 9.30746C10.1015 8.75109 11.1135 8.20408 12.1227 7.65278C12.1448 7.6407 12.1643 7.63486 12.183 7.63369V7.6333Z" fill="#34B84A"/>
<path d="M2.0293 5.45212C3.0385 5.99407 4.04459 6.53368 5.04951 7.07563C5.10945 7.10797 5.1546 7.1068 5.21453 7.07407C6.18404 6.54654 7.15471 6.02173 8.12538 5.49615C8.14873 5.48368 8.17131 5.46927 8.20828 5.44745C7.20531 4.91251 6.21478 4.38576 5.22621 3.85472C5.15732 3.81771 5.10594 3.80836 5.0355 3.84498C4.04576 4.3542 3.05796 4.86693 2.0834 5.40576C2.0651 5.41589 2.0507 5.43381 2.02969 5.45212H2.0293Z" fill="#34B84A"/>
<path d="M11.6988 7.37267C10.704 6.83618 9.71936 6.30514 8.73546 5.77293C8.66423 5.73436 8.6078 5.73086 8.53035 5.77293C7.57135 6.29423 6.60924 6.81086 5.6483 7.32904C5.62962 7.33917 5.61288 7.35319 5.58447 7.37306C5.9655 7.58189 6.33914 7.78683 6.71316 7.99138C7.30319 8.31397 7.89439 8.63423 8.48287 8.95956C8.59574 9.02189 8.6907 9.03475 8.81096 8.96852C9.76218 8.4441 10.7165 7.92592 11.6697 7.40579C11.6786 7.40112 11.6841 7.38982 11.6992 7.37306L11.6988 7.37267Z" fill="#34B84A"/>
<path d="M12.183 0.0267572V3.26598C12.141 3.26715 12.1071 3.24611 12.069 3.22624C11.5579 2.96091 11.0461 2.69676 10.5363 2.42871C10.0611 2.17858 9.58817 1.92416 9.104 1.66585C10.1066 1.12507 11.0921 0.595588 12.0752 0.0606531C12.1141 0.0396141 12.1487 0.0279256 12.1826 0.0263672L12.183 0.0267572Z" fill="#34B84A"/>
<path d="M12.1834 3.88662V7.08532C12.132 7.07792 12.083 7.05337 12.032 7.02415C11.0827 6.48104 10.1156 5.97065 9.13672 5.44506C9.17019 5.42363 9.18771 5.41117 9.206 5.40104C10.0599 4.94363 10.9239 4.50298 11.7627 4.01948C11.9168 3.93065 12.0503 3.88662 12.1834 3.88623V3.88662Z" fill="#34B84A"/>
<path d="M11.6806 3.56252C10.7138 3.03654 9.74976 2.51291 8.78765 1.98654C8.69852 1.93784 8.62535 1.93511 8.5335 1.9846C7.56205 2.50862 6.58787 3.02836 5.59424 3.56018C5.84216 3.69499 6.07607 3.82979 6.3166 3.95213C7.06036 4.33083 7.80569 4.70719 8.53 5.1233C8.61017 5.16927 8.68023 5.1833 8.76974 5.13498C9.72835 4.6207 10.6893 4.11031 11.6491 3.59836C11.6619 3.59174 11.6693 3.57537 11.6806 3.56252Z" fill="#34B84A"/>
<path d="M15.5426 1.73486V6.84966C15.5426 7.0246 15.4717 7.18317 15.3573 7.29772C15.2429 7.41226 15.0845 7.48317 14.9093 7.48317C14.5598 7.48317 14.2765 7.19953 14.2765 6.84966V2.41707C14.2722 2.2659 14.1804 2.20122 14.1745 2.19733L13.9675 2.08668C13.9647 2.08551 13.962 2.08434 13.9597 2.08278C13.8153 2.00798 13.7881 2.24252 13.7881 2.24252V4.52798C13.7881 4.70291 13.7172 4.86148 13.6028 4.97603C13.4884 5.09057 13.33 5.16148 13.1552 5.16148C12.8057 5.16148 12.522 4.87785 12.522 4.52798V0.75499C12.522 0.40473 12.8057 0.121094 13.1552 0.121094C13.2319 0.121094 13.3058 0.13473 13.3739 0.160055H13.3743L13.5397 0.252003L15.2063 1.17499L15.2211 1.18317C15.4138 1.29187 15.543 1.49798 15.543 1.73525L15.5426 1.73486Z" fill="white"/>
<path d="M15.7239 11.21V15.1922C15.7239 15.5611 15.4246 15.8608 15.0556 15.8608C14.8712 15.8608 14.7042 15.7856 14.5835 15.6648C14.4625 15.544 14.3878 15.3765 14.3878 15.1922V12.7797C14.3878 12.7797 14.3586 12.5327 14.2064 12.6114C14.2037 12.613 14.2009 12.6141 14.1982 12.6153L13.9857 12.7283L13.9795 12.7318C13.9729 12.7349 13.9666 12.7384 13.9612 12.7419C13.8748 12.8 13.8713 12.9574 13.8713 12.98V17.6424C13.8713 18.0118 13.5724 18.311 13.2034 18.311C13.0185 18.311 12.8516 18.2362 12.7309 18.1154C12.6099 17.9943 12.5352 17.8271 12.5352 17.6424V12.2444C12.5352 11.9943 12.6722 11.7765 12.8753 11.6619L12.8909 11.6534L14.6497 10.6789L14.8241 10.5823H14.8244C14.8964 10.555 14.9743 10.541 15.0556 10.541C15.4246 10.541 15.7239 10.8402 15.7239 11.21Z" fill="white"/>
<path d="M13.9785 12.7314L13.9609 12.7411C13.9662 12.7377 13.9721 12.7344 13.9785 12.7314Z" fill="white"/>
<path d="M22.6678 7.59152V12.9896C22.6678 13.2397 22.5312 13.4575 22.3281 13.572L22.3125 13.5806L20.5533 14.555L20.3789 14.6517H20.3786C20.3065 14.6789 20.2287 14.693 20.1478 14.693C19.7788 14.693 19.4795 14.3937 19.4795 14.024V10.0418C19.4795 9.67243 19.7788 9.37321 20.1478 9.37321C20.3322 9.37321 20.4992 9.44801 20.6199 9.56918C20.7409 9.69035 20.8156 9.85711 20.8156 10.0418V12.4542C20.8156 12.4542 20.8444 12.7013 20.997 12.6226C20.9997 12.621 21.0024 12.6198 21.0056 12.6187L21.2243 12.5022C21.2243 12.5022 21.2247 12.5022 21.2255 12.5014C21.2371 12.4909 21.3305 12.402 21.3325 12.2754V7.59191C21.3325 7.22256 21.6314 6.92334 22.0004 6.92334C22.1852 6.92334 22.3522 6.99814 22.4729 7.11931C22.5939 7.24048 22.6686 7.40723 22.6686 7.59191L22.6678 7.59152Z" fill="white"/>
<path d="M13.6504 10.4156C13.6843 10.3996 13.7166 10.3809 13.7473 10.3599L13.6504 10.4156Z" fill="white"/>
<path d="M13.7873 8.75193V8.66699C13.7873 8.66699 13.7792 8.71219 13.7873 8.75193Z" fill="white"/>
<path d="M22.0507 5.32418C22.0507 5.50691 21.9616 5.66782 21.8254 5.7621C21.8234 5.76405 21.8211 5.76561 21.8188 5.76678C21.8164 5.76872 21.8141 5.77028 21.8118 5.77145L21.7592 5.80145C21.7592 5.80145 21.7584 5.80184 21.758 5.80223L19.4166 7.15574C19.3563 7.19041 19.294 7.21885 19.2302 7.24067C19.2294 7.24106 19.2286 7.24184 19.2274 7.24184C18.9266 7.38872 18.5767 7.33652 18.449 7.31002C18.4335 7.30652 18.421 7.30379 18.4128 7.30145C18.4109 7.30145 18.409 7.30145 18.4074 7.30067C18.4019 7.29911 18.3992 7.29834 18.3992 7.29834C18.1303 7.22509 17.9326 6.97924 17.9326 6.68704V5.82405C17.9326 5.47379 18.2159 5.19054 18.5654 5.19054H18.5821C18.8962 5.19054 19.1566 5.41924 19.2064 5.71963C19.2064 5.71963 19.2372 5.76639 19.2963 5.74262C19.2963 5.74262 19.2971 5.74223 19.2975 5.74223L19.7708 5.46834C19.9241 5.35924 19.7669 5.24197 19.7381 5.2221C19.7365 5.22093 19.7354 5.22015 19.7346 5.21976L17.4468 4.00106C17.4468 4.00106 17.4465 4.00067 17.4461 4.00067C17.2877 3.92314 17.269 4.11288 17.269 4.11288V7.73509C17.269 7.87885 17.2402 8.016 17.188 8.14067C17.1363 8.26535 17.0608 8.37833 16.9673 8.47301C16.967 8.4734 16.9666 8.47379 16.9662 8.47418C16.8907 8.55093 16.8035 8.61639 16.7077 8.66704C16.6879 8.67756 16.6673 8.68769 16.6466 8.69665L16.6513 8.67522L16.5474 8.73561L15.8636 9.13028L13.793 10.3268C13.7782 10.3385 13.7627 10.3498 13.7471 10.3603L13.6502 10.416C13.5509 10.4635 13.4392 10.49 13.3221 10.49C13.0415 10.49 12.7963 10.3385 12.6639 10.1125C12.5744 10.0038 12.5215 9.86392 12.5215 9.71275V6.08275C12.5215 5.73288 12.8052 5.44924 13.1547 5.44924C13.5042 5.44924 13.7876 5.73288 13.7876 6.08275V8.66704C13.7876 8.66704 13.7794 8.71223 13.7876 8.75197C13.7973 8.7995 13.83 8.83924 13.9265 8.78626C13.9288 8.78509 13.9308 8.78392 13.9327 8.78275C13.9347 8.78158 13.937 8.78041 13.9393 8.77885C13.9409 8.77808 13.9421 8.7773 13.9436 8.77652L15.7861 7.71171C15.7861 7.71171 15.7896 7.71015 15.7955 7.70626C15.8359 7.68093 15.992 7.56639 16.0033 7.31158C16.0041 7.29132 16.0041 7.27028 16.0033 7.24808V3.726C16.0033 3.03288 16.5591 2.4695 17.2491 2.45898H17.267L17.269 2.45937L17.3348 2.48704L17.3371 2.48859L21.7483 4.83833L21.7468 4.84106C21.9258 4.92288 22.0507 5.10833 22.0507 5.32418Z" fill="white"/>
<path d="M17.0754 16.5132C17.0528 16.556 17.026 16.5962 16.9937 16.6328C17.0073 16.6149 17.0384 16.5732 17.0754 16.5132Z" fill="white"/>
<path d="M22.6735 16.0713V18.2169C22.6735 18.3229 22.649 18.423 22.605 18.5122C22.605 18.5126 22.605 18.513 22.605 18.513C22.5513 18.6466 22.454 18.7639 22.3193 18.8414L20.4632 19.9144C20.2589 20.0325 20.0176 20.0305 19.8218 19.93C19.5665 19.8353 19.3847 19.5891 19.3847 19.3008V18.2477C19.3715 18.1058 19.1944 18.1312 19.1944 18.1312L15.4725 20.2822C15.1522 20.4673 14.7423 20.3574 14.5571 20.0368C14.3722 19.7161 14.4819 19.3058 14.8026 19.1204L19.6074 16.3436C19.7128 16.2825 19.828 16.2536 19.9417 16.2536C20.0682 16.2536 20.1923 16.2895 20.2994 16.3569C20.552 16.4855 20.7248 16.7484 20.7248 17.0516C20.7248 17.0695 20.724 17.0874 20.7228 17.1053C20.724 17.1217 20.7248 17.1384 20.7248 17.1552V17.9555C20.724 17.9605 20.7135 18.0217 20.7248 18.0731C20.7376 18.1339 20.78 18.1822 20.9018 18.1121C20.9022 18.1117 20.9026 18.1113 20.9034 18.1113L21.2081 17.9348C21.2081 17.9348 21.2101 17.934 21.2136 17.9317C21.2377 17.9169 21.3339 17.851 21.3339 17.7342V16.0713C21.3339 15.8858 21.409 15.7183 21.53 15.5971C21.6511 15.476 21.8188 15.4004 22.0041 15.4004C22.3738 15.4004 22.6739 15.7008 22.6739 16.0713H22.6735Z" fill="white"/>
<path d="M18.6936 20.812L13.8889 23.5891C13.8207 23.6285 13.7484 23.6546 13.6748 23.6682C13.5728 23.7138 13.4596 23.7391 13.3409 23.7391C12.8886 23.7391 12.522 23.3721 12.522 22.9194C12.522 22.8683 12.5266 22.8185 12.5356 22.7702V19.4464C12.5356 19.2613 12.6107 19.0934 12.7318 18.9722C12.8528 18.8511 13.0205 18.7759 13.2054 18.7759C13.5755 18.7759 13.8756 19.0763 13.8756 19.4468V21.8106C13.8756 21.8106 13.8667 21.8585 13.8756 21.9025C13.8877 21.9617 13.9309 22.0139 14.0683 21.9368C14.0691 21.9364 14.0698 21.936 14.0706 21.9356L18.0237 19.6509C18.1292 19.5898 18.2444 19.5609 18.3581 19.5609C18.5896 19.5609 18.8146 19.6809 18.9388 19.8964C19.1236 20.2174 19.0139 20.6273 18.6936 20.8128V20.812Z" fill="white"/>
<path d="M13.8751 21.8096V21.9015C13.8661 21.8575 13.8751 21.8096 13.8751 21.8096Z" fill="white"/>
<path d="M20.7244 17.9556V18.0732C20.7131 18.0214 20.7237 17.9606 20.7244 17.9556Z" fill="white"/>
<path d="M19.1814 13.3073V15.3036C19.1814 15.6742 18.8817 15.9746 18.5115 15.9746C18.1414 15.9746 17.8413 15.6742 17.8413 15.3036V13.3046C17.8402 13.2878 17.8398 13.271 17.8398 13.2543V10.8422C17.8398 10.8422 17.8106 10.5948 17.6584 10.6735C17.6557 10.6755 17.6526 10.6766 17.6498 10.6778L17.4408 10.7888V10.7892C17.4381 10.7916 17.435 10.7931 17.4315 10.7947C17.4284 10.7962 17.4249 10.7978 17.4218 10.8001C17.3447 10.8465 17.3237 11.0187 17.3237 11.0187V15.7049C17.3237 15.7236 17.3229 15.742 17.3214 15.7603V15.7614C17.3171 16.0739 17.1742 16.356 17.0762 16.513H17.0758C17.0388 16.5734 17.0077 16.6151 16.994 16.633C16.9917 16.6353 16.9901 16.6377 16.989 16.6392C16.9874 16.6412 16.9866 16.6423 16.9863 16.6427H16.9859C16.9396 16.6957 16.8839 16.7417 16.8197 16.7791L15.1971 17.7165C14.8768 17.902 14.4666 17.7921 14.2817 17.471C14.0968 17.1504 14.2066 16.7401 14.5269 16.5551L15.8977 15.763C15.8977 15.763 15.8977 15.763 15.898 15.763C15.9015 15.7595 15.9615 15.6991 15.9876 15.5483V10.3073C15.9876 10.0568 16.1242 9.83936 16.3273 9.72442L16.3429 9.71585L18.1021 8.74183L18.2765 8.64481H18.2769C18.3489 8.61793 18.4267 8.60352 18.508 8.60352C18.8766 8.60352 19.1759 8.90274 19.1759 9.27248V13.2192C19.1798 13.2481 19.1817 13.2777 19.1817 13.3077L19.1814 13.3073Z" fill="white"/>
<path d="M16.7077 8.66699L13.7471 10.3602C13.7626 10.3497 13.7782 10.3384 13.793 10.3267L15.8636 9.13024L16.5474 8.73556L16.6513 8.67517L16.6466 8.6966C16.6673 8.68764 16.6879 8.67751 16.7077 8.66699Z" fill="white"/>
<path d="M34.6406 10H32.9219L31.0518 6.99219L30.4121 7.45117V10H28.8984V2.86133H30.4121V6.12793C30.513 5.98796 30.6123 5.84798 30.71 5.70801C30.8076 5.56803 30.9069 5.42806 31.0078 5.28809L32.9414 2.86133H34.6211L32.1309 6.02051L34.6406 10ZM40.3828 7.26074C40.3828 7.71647 40.321 8.12012 40.1973 8.47168C40.0768 8.82324 39.8994 9.12109 39.665 9.36523C39.4339 9.60612 39.154 9.78841 38.8252 9.91211C38.4997 10.0358 38.1318 10.0977 37.7217 10.0977C37.3376 10.0977 36.9844 10.0358 36.6621 9.91211C36.3431 9.78841 36.0648 9.60612 35.8271 9.36523C35.5928 9.12109 35.4105 8.82324 35.2803 8.47168C35.1533 8.12012 35.0898 7.71647 35.0898 7.26074C35.0898 6.65527 35.1973 6.14258 35.4121 5.72266C35.627 5.30273 35.9329 4.98372 36.3301 4.76562C36.7272 4.54753 37.2008 4.43848 37.751 4.43848C38.262 4.43848 38.7145 4.54753 39.1084 4.76562C39.5055 4.98372 39.8164 5.30273 40.041 5.72266C40.2689 6.14258 40.3828 6.65527 40.3828 7.26074ZM36.6084 7.26074C36.6084 7.61882 36.6475 7.91992 36.7256 8.16406C36.8037 8.4082 36.9258 8.59212 37.0918 8.71582C37.2578 8.83952 37.4743 8.90137 37.7412 8.90137C38.0049 8.90137 38.2181 8.83952 38.3809 8.71582C38.5469 8.59212 38.6673 8.4082 38.7422 8.16406C38.8203 7.91992 38.8594 7.61882 38.8594 7.26074C38.8594 6.89941 38.8203 6.59993 38.7422 6.3623C38.6673 6.12142 38.5469 5.94076 38.3809 5.82031C38.2148 5.69987 37.9984 5.63965 37.7314 5.63965C37.3376 5.63965 37.0511 5.77474 36.8721 6.04492C36.6963 6.3151 36.6084 6.72038 36.6084 7.26074ZM46.5742 7.26074C46.5742 7.71647 46.5124 8.12012 46.3887 8.47168C46.2682 8.82324 46.0908 9.12109 45.8564 9.36523C45.6253 9.60612 45.3454 9.78841 45.0166 9.91211C44.6911 10.0358 44.3232 10.0977 43.9131 10.0977C43.529 10.0977 43.1758 10.0358 42.8535 9.91211C42.5345 9.78841 42.2562 9.60612 42.0186 9.36523C41.7842 9.12109 41.6019 8.82324 41.4717 8.47168C41.3447 8.12012 41.2812 7.71647 41.2812 7.26074C41.2812 6.65527 41.3887 6.14258 41.6035 5.72266C41.8184 5.30273 42.1243 4.98372 42.5215 4.76562C42.9186 4.54753 43.3923 4.43848 43.9424 4.43848C44.4535 4.43848 44.9059 4.54753 45.2998 4.76562C45.6969 4.98372 46.0078 5.30273 46.2324 5.72266C46.4603 6.14258 46.5742 6.65527 46.5742 7.26074ZM42.7998 7.26074C42.7998 7.61882 42.8389 7.91992 42.917 8.16406C42.9951 8.4082 43.1172 8.59212 43.2832 8.71582C43.4492 8.83952 43.6657 8.90137 43.9326 8.90137C44.1963 8.90137 44.4095 8.83952 44.5723 8.71582C44.7383 8.59212 44.8587 8.4082 44.9336 8.16406C45.0117 7.91992 45.0508 7.61882 45.0508 7.26074C45.0508 6.89941 45.0117 6.59993 44.9336 6.3623C44.8587 6.12142 44.7383 5.94076 44.5723 5.82031C44.4062 5.69987 44.1898 5.63965 43.9229 5.63965C43.529 5.63965 43.2425 5.77474 43.0635 6.04492C42.8877 6.3151 42.7998 6.72038 42.7998 7.26074ZM49.2939 2.40234V4.16992C49.2939 4.375 49.2874 4.57845 49.2744 4.78027C49.2646 4.9821 49.2516 5.13835 49.2354 5.24902H49.2939C49.4372 5.02441 49.6325 4.83398 49.8799 4.67773C50.1273 4.51823 50.4479 4.43848 50.8418 4.43848C51.4538 4.43848 51.9502 4.67773 52.3311 5.15625C52.7119 5.63477 52.9023 6.33626 52.9023 7.26074C52.9023 7.88249 52.8145 8.40495 52.6387 8.82812C52.4629 9.24805 52.2171 9.56543 51.9014 9.78027C51.5856 9.99186 51.2194 10.0977 50.8027 10.0977C50.4023 10.0977 50.0866 10.026 49.8555 9.88281C49.6243 9.73958 49.4372 9.57845 49.2939 9.39941H49.1914L48.9424 10H47.8047V2.40234H49.2939ZM50.3633 5.62988C50.1029 5.62988 49.8962 5.68359 49.7432 5.79102C49.5902 5.89844 49.4779 6.05957 49.4062 6.27441C49.3379 6.48926 49.3005 6.76107 49.2939 7.08984V7.25098C49.2939 7.78158 49.3721 8.18848 49.5283 8.47168C49.6846 8.75163 49.9694 8.8916 50.3828 8.8916C50.6888 8.8916 50.9313 8.75 51.1104 8.4668C51.2926 8.18359 51.3838 7.77507 51.3838 7.24121C51.3838 6.70736 51.2926 6.30534 51.1104 6.03516C50.9281 5.76497 50.679 5.62988 50.3633 5.62988ZM56.3838 4.43848C56.8883 4.43848 57.3229 4.53613 57.6875 4.73145C58.0521 4.9235 58.3337 5.20345 58.5322 5.57129C58.7308 5.93913 58.8301 6.38835 58.8301 6.91895V7.6416H55.3096C55.3258 8.06152 55.4512 8.39193 55.6855 8.63281C55.9232 8.87044 56.252 8.98926 56.6719 8.98926C57.0202 8.98926 57.3392 8.95345 57.6289 8.88184C57.9186 8.81022 58.2165 8.7028 58.5225 8.55957V9.71191C58.2523 9.84538 57.9691 9.94303 57.6729 10.0049C57.3799 10.0667 57.0234 10.0977 56.6035 10.0977C56.0566 10.0977 55.5716 9.99674 55.1484 9.79492C54.7285 9.5931 54.3981 9.28548 54.1572 8.87207C53.9196 8.45866 53.8008 7.93783 53.8008 7.30957C53.8008 6.67155 53.9082 6.14095 54.123 5.71777C54.3411 5.29134 54.6439 4.97233 55.0312 4.76074C55.4186 4.5459 55.8695 4.43848 56.3838 4.43848ZM56.3936 5.49805C56.1038 5.49805 55.863 5.59082 55.6709 5.77637C55.4821 5.96191 55.373 6.25326 55.3438 6.65039H57.4336C57.4303 6.42904 57.3896 6.2321 57.3115 6.05957C57.2367 5.88704 57.1227 5.75033 56.9697 5.64941C56.82 5.5485 56.6279 5.49805 56.3936 5.49805ZM63.0879 4.43848C63.1628 4.43848 63.249 4.44336 63.3467 4.45312C63.4476 4.45964 63.529 4.4694 63.5908 4.48242L63.4785 5.87891C63.4297 5.86263 63.3597 5.85124 63.2686 5.84473C63.1807 5.83496 63.1042 5.83008 63.0391 5.83008C62.847 5.83008 62.6598 5.85449 62.4775 5.90332C62.2985 5.95215 62.1374 6.0319 61.9941 6.14258C61.8509 6.25 61.737 6.39323 61.6523 6.57227C61.571 6.74805 61.5303 6.96452 61.5303 7.22168V10H60.041V4.54102H61.1689L61.3887 5.45898H61.4619C61.5693 5.27344 61.7028 5.10417 61.8623 4.95117C62.0251 4.79492 62.209 4.67122 62.4141 4.58008C62.6224 4.48568 62.847 4.43848 63.0879 4.43848ZM31.9307 15.0186C31.641 15.0186 31.3838 15.0755 31.1592 15.1895C30.9378 15.3001 30.7507 15.4613 30.5977 15.6729C30.4479 15.8844 30.334 16.14 30.2559 16.4395C30.1777 16.7389 30.1387 17.0758 30.1387 17.4502C30.1387 17.9548 30.2005 18.3861 30.3242 18.7441C30.4512 19.099 30.6465 19.3708 30.9102 19.5596C31.1738 19.7451 31.514 19.8379 31.9307 19.8379C32.2204 19.8379 32.5101 19.8053 32.7998 19.7402C33.0928 19.6751 33.4102 19.5824 33.752 19.4619V20.7314C33.4362 20.8617 33.1253 20.9544 32.8193 21.0098C32.5133 21.0684 32.1699 21.0977 31.7891 21.0977C31.0534 21.0977 30.4479 20.9463 29.9727 20.6436C29.5007 20.3376 29.1507 19.9111 28.9229 19.3643C28.695 18.8141 28.5811 18.1729 28.5811 17.4404C28.5811 16.9001 28.6543 16.4053 28.8008 15.9561C28.9473 15.5068 29.1621 15.1178 29.4453 14.7891C29.7285 14.4603 30.0785 14.2064 30.4951 14.0273C30.9118 13.8483 31.3903 13.7588 31.9307 13.7588C32.2855 13.7588 32.6403 13.8044 32.9951 13.8955C33.3532 13.9834 33.695 14.1055 34.0205 14.2617L33.5322 15.4922C33.2653 15.3652 32.9967 15.2546 32.7266 15.1602C32.4564 15.0658 32.1911 15.0186 31.9307 15.0186ZM40.1191 18.2607C40.1191 18.7165 40.0573 19.1201 39.9336 19.4717C39.8132 19.8232 39.6357 20.1211 39.4014 20.3652C39.1702 20.6061 38.8903 20.7884 38.5615 20.9121C38.236 21.0358 37.8682 21.0977 37.458 21.0977C37.0739 21.0977 36.7207 21.0358 36.3984 20.9121C36.0794 20.7884 35.8011 20.6061 35.5635 20.3652C35.3291 20.1211 35.1468 19.8232 35.0166 19.4717C34.8896 19.1201 34.8262 18.7165 34.8262 18.2607C34.8262 17.6553 34.9336 17.1426 35.1484 16.7227C35.3633 16.3027 35.6693 15.9837 36.0664 15.7656C36.4635 15.5475 36.9372 15.4385 37.4873 15.4385C37.9984 15.4385 38.4508 15.5475 38.8447 15.7656C39.2419 15.9837 39.5527 16.3027 39.7773 16.7227C40.0052 17.1426 40.1191 17.6553 40.1191 18.2607ZM36.3447 18.2607C36.3447 18.6188 36.3838 18.9199 36.4619 19.1641C36.54 19.4082 36.6621 19.5921 36.8281 19.7158C36.9941 19.8395 37.2106 19.9014 37.4775 19.9014C37.7412 19.9014 37.9544 19.8395 38.1172 19.7158C38.2832 19.5921 38.4036 19.4082 38.4785 19.1641C38.5566 18.9199 38.5957 18.6188 38.5957 18.2607C38.5957 17.8994 38.5566 17.5999 38.4785 17.3623C38.4036 17.1214 38.2832 16.9408 38.1172 16.8203C37.9512 16.6999 37.7347 16.6396 37.4678 16.6396C37.0739 16.6396 36.7874 16.7747 36.6084 17.0449C36.4326 17.3151 36.3447 17.7204 36.3447 18.2607ZM43.0781 21.0977C42.4694 21.0977 41.973 20.86 41.5889 20.3848C41.208 19.9062 41.0176 19.2048 41.0176 18.2803C41.0176 17.346 41.2113 16.6396 41.5986 16.1611C41.986 15.6794 42.4922 15.4385 43.1172 15.4385C43.3776 15.4385 43.6071 15.4743 43.8057 15.5459C44.0042 15.6175 44.1751 15.7135 44.3184 15.834C44.4648 15.9544 44.5885 16.0895 44.6895 16.2393H44.7383C44.7188 16.1351 44.6943 15.9821 44.665 15.7803C44.639 15.5752 44.626 15.3652 44.626 15.1504V13.4023H46.1201V21H44.9775L44.6895 20.292H44.626C44.5316 20.4417 44.4128 20.5785 44.2695 20.7021C44.1296 20.8226 43.9619 20.9186 43.7666 20.9902C43.5713 21.0618 43.3418 21.0977 43.0781 21.0977ZM43.6006 19.9111C44.0075 19.9111 44.2939 19.7907 44.46 19.5498C44.6292 19.3057 44.7188 18.9395 44.7285 18.4512V18.29C44.7285 17.7594 44.6471 17.3542 44.4844 17.0742C44.3216 16.791 44.0189 16.6494 43.5762 16.6494C43.2474 16.6494 42.9902 16.791 42.8047 17.0742C42.6191 17.3574 42.5264 17.766 42.5264 18.2998C42.5264 18.8337 42.6191 19.2357 42.8047 19.5059C42.9935 19.776 43.2588 19.9111 43.6006 19.9111ZM49.9287 15.4385C50.4333 15.4385 50.8678 15.5361 51.2324 15.7314C51.597 15.9235 51.8786 16.2035 52.0771 16.5713C52.2757 16.9391 52.375 17.3883 52.375 17.9189V18.6416H48.8545C48.8708 19.0615 48.9961 19.3919 49.2305 19.6328C49.4681 19.8704 49.7969 19.9893 50.2168 19.9893C50.5651 19.9893 50.8841 19.9535 51.1738 19.8818C51.4635 19.8102 51.7614 19.7028 52.0674 19.5596V20.7119C51.7972 20.8454 51.514 20.943 51.2178 21.0049C50.9248 21.0667 50.5684 21.0977 50.1484 21.0977C49.6016 21.0977 49.1165 20.9967 48.6934 20.7949C48.2734 20.5931 47.943 20.2855 47.7021 19.8721C47.4645 19.4587 47.3457 18.9378 47.3457 18.3096C47.3457 17.6715 47.4531 17.141 47.668 16.7178C47.8861 16.2913 48.1888 15.9723 48.5762 15.7607C48.9635 15.5459 49.4144 15.4385 49.9287 15.4385ZM49.9385 16.498C49.6488 16.498 49.4079 16.5908 49.2158 16.7764C49.027 16.9619 48.918 17.2533 48.8887 17.6504H50.9785C50.9753 17.429 50.9346 17.2321 50.8564 17.0596C50.7816 16.887 50.6676 16.7503 50.5146 16.6494C50.3649 16.5485 50.1729 16.498 49.9385 16.498ZM56.6328 15.4385C56.7077 15.4385 56.7939 15.4434 56.8916 15.4531C56.9925 15.4596 57.0739 15.4694 57.1357 15.4824L57.0234 16.8789C56.9746 16.8626 56.9046 16.8512 56.8135 16.8447C56.7256 16.835 56.6491 16.8301 56.584 16.8301C56.3919 16.8301 56.2048 16.8545 56.0225 16.9033C55.8434 16.9521 55.6823 17.0319 55.5391 17.1426C55.3958 17.25 55.2819 17.3932 55.1973 17.5723C55.1159 17.748 55.0752 17.9645 55.0752 18.2217V21H53.5859V15.541H54.7139L54.9336 16.459H55.0068C55.1143 16.2734 55.2477 16.1042 55.4072 15.9512C55.57 15.7949 55.7539 15.6712 55.959 15.5801C56.1673 15.4857 56.3919 15.4385 56.6328 15.4385ZM61.9355 19.3789C61.9355 19.75 61.8477 20.0641 61.6719 20.3213C61.4993 20.5752 61.2406 20.7689 60.8955 20.9023C60.5505 21.0326 60.1208 21.0977 59.6064 21.0977C59.2256 21.0977 58.8984 21.0732 58.625 21.0244C58.3548 20.9756 58.0814 20.8942 57.8047 20.7803V19.5498C58.1009 19.6833 58.4183 19.7939 58.7568 19.8818C59.0986 19.9665 59.3981 20.0088 59.6553 20.0088C59.945 20.0088 60.1517 19.9665 60.2754 19.8818C60.4023 19.7939 60.4658 19.68 60.4658 19.54C60.4658 19.4489 60.4398 19.3675 60.3877 19.2959C60.3389 19.221 60.2314 19.138 60.0654 19.0469C59.8994 18.9525 59.639 18.8304 59.2842 18.6807C58.9424 18.5374 58.6608 18.3926 58.4395 18.2461C58.2214 18.0996 58.0586 17.9271 57.9512 17.7285C57.847 17.5267 57.7949 17.2712 57.7949 16.9619C57.7949 16.4574 57.9902 16.0781 58.3809 15.8242C58.7747 15.5671 59.3005 15.4385 59.958 15.4385C60.2965 15.4385 60.6188 15.4727 60.9248 15.541C61.234 15.6094 61.5514 15.7184 61.877 15.8682L61.4277 16.9424C61.1576 16.8252 60.902 16.7292 60.6611 16.6543C60.4235 16.5794 60.181 16.542 59.9336 16.542C59.7155 16.542 59.5511 16.5713 59.4404 16.6299C59.3298 16.6885 59.2744 16.778 59.2744 16.8984C59.2744 16.9863 59.3021 17.0645 59.3574 17.1328C59.416 17.2012 59.5267 17.2777 59.6895 17.3623C59.8555 17.4437 60.098 17.5495 60.417 17.6797C60.7262 17.8066 60.9948 17.9401 61.2227 18.0801C61.4505 18.2168 61.6263 18.3877 61.75 18.5928C61.8737 18.7946 61.9355 19.0566 61.9355 19.3789Z" fill="white"/>
</svg>
