<svg width="32" height="32" viewBox="0 0 32 32" fill="none" xmlns="http://www.w3.org/2000/svg">
<path d="M9.3335 24C6.89492 24.5489 5.3335 25.3924 5.3335 26.3383C5.3335 27.9924 10.1091 29.3333 16.0002 29.3333C21.8912 29.3333 26.6668 27.9924 26.6668 26.3383C26.6668 25.3924 25.1054 24.5489 22.6668 24" stroke="#ECF0DC" stroke-width="1.5" stroke-linecap="round"/>
<path d="M19.3332 12C19.3332 13.8409 17.8408 15.3333 15.9998 15.3333C14.1589 15.3333 12.6665 13.8409 12.6665 12C12.6665 10.1591 14.1589 8.66667 15.9998 8.66667C17.8408 8.66667 19.3332 10.1591 19.3332 12Z" stroke="#ECF0DC" stroke-width="1.5"/>
<path d="M17.6764 23.3248C17.2266 23.7579 16.6256 24 16.0001 24C15.3745 24 14.7734 23.7579 14.3237 23.3248C10.2056 19.3344 4.68676 14.8767 7.37812 8.40497C8.8333 4.90576 12.3264 2.66667 16.0001 2.66667C19.6737 2.66667 23.1668 4.90577 24.622 8.40497C27.31 14.8685 21.8046 19.3481 17.6764 23.3248Z" stroke="#ECF0DC" stroke-width="1.5"/>
</svg>
