<svg width="96" height="40" viewBox="0 0 96 40" fill="none" xmlns="http://www.w3.org/2000/svg">
<path d="M62.5211 29.9444L70.8936 4.07066C71.5424 3.02857 76.6731 3.23012 77.0881 3.82102C77.503 4.41192 76.1642 8.12912 75.8753 9.04754C73.0577 18.0027 69.6716 26.7998 66.8472 35.7573C66.5744 36.1489 65.8316 36.4993 65.3685 36.5703C64.3254 36.7307 59.1098 36.7146 58.4014 36.2314C58.1469 36.0573 58.0002 35.8649 57.92 35.5672L47.7204 5.22041C47.6103 4.78983 47.4292 4.02715 47.8419 3.71566C48.5159 3.20492 53.8209 3.17973 54.3802 3.83476L62.5211 29.9444Z" fill="#ECF0DC"/>
<path d="M88.1955 36.1283C86.9391 36.6688 82.6314 36.9918 81.774 36.0161C81.586 35.8031 81.5103 35.629 81.5333 35.3405L81.5837 4.21725C81.9895 3.01025 88.1955 3.17515 88.1955 4.1806V36.1306V36.1283Z" fill="#ECF0DC"/>
<path d="M23.316 8.87347V35.5557C23.316 37.1429 17.7382 36.6368 16.6676 36.1283V9.21702C16.6676 9.19183 16.3489 8.87347 16.3237 8.87347H8.0705C7.12597 8.87347 7.24977 4.40276 7.72662 3.60573H31.9131C32.8187 3.60573 32.6857 8.87347 31.9131 8.87347H23.316Z" fill="#ECF0DC"/>
<path d="M38.8572 3.44541C39.8224 3.34692 43.0503 3.27592 43.2612 4.40734L43.2704 35.3382C43.2704 35.6611 43.1924 35.9336 42.9334 36.1466C42.241 36.7169 36.5257 37.2231 36.6013 35.3382L36.6128 4.40734C36.7618 3.5897 38.1488 3.51641 38.8595 3.44541H38.8572Z" fill="#ECF0DC"/>
</svg>
