<svg width="32" height="32" viewBox="0 0 32 32" fill="none" xmlns="http://www.w3.org/2000/svg">
<path d="M15.9998 29.3333C23.3636 29.3333 29.3332 23.3637 29.3332 16C29.3332 8.6362 23.3636 2.66667 15.9998 2.66667C8.63604 2.66667 2.6665 8.6362 2.6665 16C2.6665 17.8385 3.0386 19.5901 3.7116 21.1836C4.08354 22.0641 4.26952 22.5045 4.29254 22.8373C4.31557 23.1701 4.21762 23.5361 4.02173 24.2683L2.6665 29.3333L7.73153 27.9781C8.46368 27.7823 8.82976 27.6843 9.16253 27.7073C9.49532 27.7303 9.93564 27.9163 10.8163 28.2883C12.4098 28.9612 14.1613 29.3333 15.9998 29.3333Z" stroke="#ECF0DC" stroke-width="1.5" stroke-linejoin="round"/>
<path d="M11.451 16.5031L12.6123 15.0608C13.1017 14.4529 13.7067 13.8871 13.7542 13.0777C13.766 12.8733 13.6223 11.9554 13.3346 10.1198C13.2215 9.39841 12.548 9.33333 11.9646 9.33333C11.2043 9.33333 10.8242 9.33333 10.4468 9.50575C9.96968 9.72367 9.47988 10.3364 9.37239 10.8498C9.28735 11.2559 9.35055 11.5358 9.47695 12.0956C10.0138 14.4731 11.2732 16.8211 13.2261 18.774C15.1791 20.7269 17.5271 21.9864 19.9046 22.5232C20.4643 22.6496 20.7442 22.7128 21.1504 22.6277C21.6638 22.5203 22.2764 22.0305 22.4944 21.5533C22.6668 21.1759 22.6668 20.7959 22.6668 20.0356C22.6668 19.4521 22.6018 18.7787 21.8803 18.6656C20.0447 18.3779 19.127 18.2341 18.9224 18.246C18.1131 18.2935 17.5472 18.8984 16.9394 19.3879L15.4971 20.5491" stroke="#ECF0DC" stroke-width="1.5" stroke-linejoin="round"/>
</svg>
