<svg width="32" height="32" viewBox="0 0 32 32" fill="none" xmlns="http://www.w3.org/2000/svg">
<path d="M21.3332 2.6665V7.99984M10.6665 2.6665V7.99984" stroke="#E06363" stroke-width="1.5" stroke-linecap="round" stroke-linejoin="round"/>
<path d="M28 16.0002C28 10.9718 28 8.4577 26.4379 6.89559C24.8759 5.3335 22.3616 5.3335 17.3333 5.3335H14.6667C9.63835 5.3335 7.1242 5.3335 5.56209 6.89559C4 8.4577 4 10.9718 4 16.0002V18.6668C4 23.6951 4 26.2094 5.56209 27.7714C7.1242 29.3335 9.63835 29.3335 14.6667 29.3335" stroke="#E06363" stroke-width="1.5" stroke-linecap="round" stroke-linejoin="round"/>
<path d="M4 13.3335H28" stroke="#E06363" stroke-width="1.5" stroke-linecap="round" stroke-linejoin="round"/>
<path d="M24.3563 24.9346L22.6668 23.9998V21.6889M28.0002 23.9998C28.0002 26.9453 25.6123 29.3332 22.6668 29.3332C19.7214 29.3332 17.3335 26.9453 17.3335 23.9998C17.3335 21.0544 19.7214 18.6665 22.6668 18.6665C25.6123 18.6665 28.0002 21.0544 28.0002 23.9998Z" stroke="#E06363" stroke-width="1.5" stroke-linecap="round" stroke-linejoin="round"/>
</svg>
