<svg width="32" height="32" viewBox="0 0 32 32" fill="none" xmlns="http://www.w3.org/2000/svg">
<path d="M9.3335 24C6.89492 24.5489 5.3335 25.3924 5.3335 26.3383C5.3335 27.9924 10.1091 29.3333 16.0002 29.3333C21.8912 29.3333 26.6668 27.9924 26.6668 26.3383C26.6668 25.3924 25.1054 24.5489 22.6668 24" stroke="#E06363" stroke-width="1.5" stroke-linecap="round"/>
<path d="M19.3332 11.9998C19.3332 13.8408 17.8408 15.3332 15.9998 15.3332C14.1589 15.3332 12.6665 13.8408 12.6665 11.9998C12.6665 10.1589 14.1589 8.6665 15.9998 8.6665C17.8408 8.6665 19.3332 10.1589 19.3332 11.9998Z" stroke="#E06363" stroke-width="1.5"/>
<path d="M17.6764 23.3246C17.2266 23.7577 16.6256 23.9998 16.0001 23.9998C15.3745 23.9998 14.7734 23.7577 14.3237 23.3246C10.2056 19.3342 4.68676 14.8765 7.37812 8.40481C8.8333 4.9056 12.3264 2.6665 16.0001 2.6665C19.6737 2.6665 23.1668 4.90561 24.622 8.40481C27.31 14.8684 21.8046 19.348 17.6764 23.3246Z" stroke="#E06363" stroke-width="1.5"/>
</svg>
