<svg width="32" height="32" viewBox="0 0 32 32" fill="none" xmlns="http://www.w3.org/2000/svg">
<path d="M6.32051 19.158L8.92468 17.3088C9.65927 16.7872 10.4041 16.4376 11.2538 16.2113C12.2293 15.9515 12.6667 15.4192 12.6667 14.2813C12.6667 11.395 19.3333 11.0879 19.3333 14.2813C19.3333 15.4192 19.7707 15.9515 20.7463 16.2113C21.6027 16.4393 22.3465 16.7912 23.0753 17.3088L25.6795 19.158C26.8579 19.9948 27.4063 20.3993 27.7123 21.0425C28 21.6477 28 22.3573 28 23.7765C28 26.3281 28 27.604 27.2856 28.4219C26.4203 29.4124 24.1707 29.3273 22.7889 29.3273H9.21111C7.82929 29.3273 5.62545 29.4648 4.7144 28.4219C4 27.604 4 26.3281 4 23.7765C4 22.3573 4 21.6477 4.28779 21.0425C4.59368 20.3993 5.14216 19.9948 6.32051 19.158Z" stroke="#E06363" stroke-width="1.5"/>
<path d="M18.6668 22.6667C18.6668 24.1395 17.473 25.3333 16.0002 25.3333C14.5274 25.3333 13.3335 24.1395 13.3335 22.6667C13.3335 21.1939 14.5274 20 16.0002 20C17.473 20 18.6668 21.1939 18.6668 22.6667Z" stroke="#E06363" stroke-width="1.5"/>
<path d="M9.28003 4.93029C7.52211 5.4322 6.25829 6.05482 5.10177 6.80606C3.27075 7.99546 2.48575 10.1387 2.70127 12.2068C2.79236 13.0809 3.49403 13.4988 4.30769 13.2727C4.92585 13.1009 5.54501 12.9337 6.15932 12.7515C7.95592 12.2186 8.37849 11.5708 8.62816 9.7318L9.28003 4.93029ZM9.28003 4.93029C13.6246 3.6899 18.375 3.6899 22.7197 4.93029M22.7197 4.93029C24.4776 5.4322 25.7414 6.05482 26.8978 6.80606C28.7289 7.99546 29.514 10.1387 29.2984 12.2068C29.2073 13.0809 28.5057 13.4988 27.692 13.2727C27.0738 13.1009 26.4546 12.9337 25.8404 12.7515C24.0437 12.2186 23.6212 11.5708 23.3716 9.7318L22.7197 4.93029Z" stroke="#E06363" stroke-width="1.5" stroke-linejoin="round"/>
</svg>
